<?xml version="1.0" encoding="UTF-8"?>
<svg version="1.1" xmlns="http://www.w3.org/2000/svg" width="500" height="500">
<path d="M0 0 C3.96930989 -0.02465881 7.93859034 -0.04284023 11.90795898 -0.05493164 C13.25920386 -0.05997057 14.61044326 -0.06680177 15.96166992 -0.07543945 C17.90020434 -0.08752419 19.838778 -0.09269828 21.77734375 -0.09765625 C23.52905884 -0.10551147 23.52905884 -0.10551147 25.31616211 -0.11352539 C28 0 28 0 29 1 C29.09504251 3.52541002 29.12557158 6.02337126 29.11352539 8.54907227 C29.11367142 9.33925751 29.11381744 10.12944275 29.1139679 10.943573 C29.11326857 13.56787822 29.10547527 16.19211336 29.09765625 18.81640625 C29.09579214 20.63101665 29.0943682 22.44562756 29.09336853 24.26023865 C29.08954279 29.0459023 29.07971204 33.8315358 29.06866455 38.6171875 C29.05845163 43.49674064 29.05387117 48.37629864 29.04882812 53.25585938 C29.03808982 62.83725286 29.02101273 72.41862393 29 82 C30.32 82 31.64 82 33 82 C33.153479 81.07578751 33.153479 81.07578751 33.31005859 80.13290405 C34.73789578 71.8920906 36.64912889 63.78640218 38.625 55.6640625 C38.97624028 54.21206612 39.32731134 52.7600288 39.67822266 51.30795288 C40.40905898 48.28698876 41.14219043 45.26659348 41.87695312 42.24658203 C42.81636721 38.38443275 43.74952141 34.52080184 44.68093872 30.6567173 C45.40235218 27.667185 46.1272647 24.67850955 46.85321045 21.69007492 C47.19879451 20.26544767 47.54325161 18.84054653 47.88653564 17.41536331 C48.3660856 15.42657133 48.85039872 13.43899728 49.3359375 11.45166016 C49.60970215 10.32345856 49.8834668 9.19525696 50.16552734 8.03286743 C51 5 51 5 53 0 C62.57 0 72.14 0 82 0 C83.21270508 3.63811523 82.67677497 5.10742963 81.72412109 8.79052734 C81.26771744 10.58047623 81.26771744 10.58047623 80.80209351 12.40658569 C80.45931535 13.71639768 80.11642694 15.02618082 79.7734375 16.3359375 C79.42448818 17.69361837 79.07632664 19.05150194 78.72891235 20.40957642 C77.80748267 24.00370907 76.87646763 27.59528796 75.94311523 31.18634033 C75.0159037 34.75841578 74.09569374 38.33228904 73.17578125 41.90625 C72.9071118 42.94990911 72.9071118 42.94990911 72.63301468 44.01465225 C68.23930683 61.04159618 68.23930683 61.04159618 63.9765625 78.1015625 C63.77026215 78.91910004 63.56396179 79.73663757 63.35140991 80.57894897 C61.48921806 88.30533129 61.9037209 94.68939618 63.984375 102.2890625 C64.19621933 103.09007385 64.40806366 103.89108521 64.62632751 104.71636963 C65.32621126 107.35478485 66.03817894 109.98978287 66.75 112.625 C67.2414737 114.47129554 67.73210032 116.31781676 68.22192383 118.16455078 C69.80270128 124.11291678 71.39986666 130.05681562 73 136 C73.56624608 138.10351493 74.13248955 140.20703056 74.69873047 142.31054688 C74.98056183 143.35735626 75.26239319 144.40416565 75.55276489 145.48269653 C76.66389757 149.61283405 77.77203974 153.74377208 78.88024902 157.87469482 C79.67889695 160.84302509 80.48414085 163.80951008 81.29003906 166.77587891 C81.78080637 168.59792592 82.27137661 170.42002602 82.76171875 172.2421875 C82.98931381 173.07260559 83.21690887 173.90302368 83.45140076 174.75860596 C83.65652786 175.52517517 83.86165497 176.29174438 84.07299805 177.08154297 C84.2529985 177.74540009 84.43299896 178.4092572 84.61845398 179.0932312 C85 181 85 181 85 185 C80.42337784 187.28831108 74.02502708 186.18502705 69 186.1875 C67.6903125 186.19974609 66.380625 186.21199219 65.03125 186.22460938 C63.15953125 186.22750977 63.15953125 186.22750977 61.25 186.23046875 C60.10015625 186.23457764 58.9503125 186.23868652 57.765625 186.24291992 C55 186 55 186 53 184 C52.2315391 181.55461673 51.55933419 179.14331231 50.93701172 176.66040039 C50.74164825 175.90414871 50.54628479 175.14789703 50.34500122 174.36872864 C49.69972037 171.86340497 49.06454438 169.3556399 48.4296875 166.84765625 C47.98464625 165.10879294 47.53909301 163.37006059 47.0930481 161.63145447 C46.15909934 157.98496628 45.22986983 154.33731892 44.30419922 150.6887207 C43.11653347 146.00812978 41.91958884 141.32997584 40.71940422 136.65258121 C39.79861025 133.06144603 38.88155826 129.46936411 37.96576309 125.87695122 C37.52566625 124.15151952 37.08467694 122.42631522 36.64278793 120.70134163 C36.0262949 118.29146457 35.41455932 115.88043074 34.80419922 113.46899414 C34.62032654 112.75356445 34.43645386 112.03813477 34.24700928 111.30102539 C33.52897838 108.44641209 33 105.95745482 33 103 C31.68 103 30.36 103 29 103 C29 130.06 29 157.12 29 185 C26.23382437 186.38308781 23.98982 186.11210196 20.8984375 186.09765625 C19.68671875 186.09443359 18.475 186.09121094 17.2265625 186.08789062 C15.95554687 186.07951172 14.68453125 186.07113281 13.375 186.0625 C12.09625 186.05798828 10.8175 186.05347656 9.5 186.04882812 C6.33328708 186.03701203 3.16666644 186.02053815 0 186 C-1.77952385 181.40389231 -2.25106747 177.58503934 -2.25396729 172.66844177 C-2.25708727 171.95222139 -2.26020725 171.23600101 -2.26342177 170.49807698 C-2.27136794 168.10987979 -2.26509147 165.72193909 -2.25878906 163.33374023 C-2.2615004 161.6168503 -2.26506214 159.89996153 -2.26940918 158.18307495 C-2.27851771 153.52825523 -2.27499543 148.87352428 -2.26865101 144.21870303 C-2.2635839 139.34567448 -2.26828437 134.47265348 -2.27142334 129.59962463 C-2.27506056 121.41772091 -2.27026991 113.23585331 -2.26074219 105.05395508 C-2.24985448 95.59494396 -2.2533865 86.13601904 -2.264395 76.67701 C-2.27347047 68.55372837 -2.27475198 60.43047268 -2.26951766 52.30718762 C-2.26639987 47.45629244 -2.26598348 42.60543778 -2.27259064 37.75454521 C-2.27836736 33.19499932 -2.27436118 28.63556461 -2.26280212 24.07603073 C-2.26015745 22.40268069 -2.26091735 20.72932128 -2.26532745 19.05597496 C-2.27079187 16.77204846 -2.26393809 14.48847837 -2.25396729 12.20457458 C-2.25321323 10.92646628 -2.25245918 9.64835798 -2.25168228 8.33151913 C-2.00879308 5.11639401 -1.38634726 2.88744783 0 0 Z M6 13 C6 66.13 6 119.26 6 174 C7.32 174 8.64 174 10 174 C10 120.87 10 67.74 10 13 C8.68 13 7.36 13 6 13 Z " fill="#FB3232" transform="translate(252,191)"/>
<path d="M0 0 C2.54695023 -0.29325022 4.84682364 -0.39612165 7.39453125 -0.36328125 C8.50933113 -0.36402901 8.50933113 -0.36402901 9.64665222 -0.36479187 C11.22792212 -0.36244698 12.80919544 -0.35269407 14.39038086 -0.33618164 C16.76516821 -0.31296277 19.1388028 -0.31557026 21.51367188 -0.32226562 C35.52827381 -0.29825274 47.72306549 0.63013585 60 8 C60.92619141 8.55300781 60.92619141 8.55300781 61.87109375 9.1171875 C68.51697477 13.84698334 72.39516679 23.2676218 74 31 C74.84334426 36.77411257 75.17247266 42.391484 75.203125 48.22265625 C75.20882507 49.08579941 75.21452515 49.94894257 75.22039795 50.83824158 C75.22979343 52.65769243 75.23636007 54.47715988 75.24023438 56.29663086 C75.24988791 59.03075194 75.28094217 61.76410323 75.3125 64.49804688 C75.40646224 79.89614236 74.91588847 95.93670816 64.1484375 108.08984375 C54.55582618 117.12830023 42.83142154 119 30 119 C29.67 140.78 29.34 162.56 29 185 C23.82661386 186.72446205 18.3523547 186.1846059 12.9375 186.1875 C11.72771484 186.19974609 10.51792969 186.21199219 9.27148438 186.22460938 C7.54188477 186.22750977 7.54188477 186.22750977 5.77734375 186.23046875 C4.71765381 186.23457764 3.65796387 186.23868652 2.56616211 186.24291992 C0 186 0 186 -2 184 C-2.19727156 181.59804002 -2.26936272 179.3113022 -2.25396729 176.90821838 C-2.25708727 176.16950325 -2.26020725 175.43078812 -2.26342177 174.66968769 C-2.27143219 172.18148595 -2.26506637 169.69352604 -2.25878906 167.20532227 C-2.2614976 165.4266648 -2.26505776 163.64800845 -2.26940918 161.86935425 C-2.27855245 157.02848874 -2.27498079 152.18770816 -2.26865101 147.3468411 C-2.26360023 142.28867435 -2.26827996 137.23051505 -2.27142334 132.17234802 C-2.27506602 123.67567637 -2.27025634 115.17903943 -2.26074219 106.68237305 C-2.24986056 96.85077427 -2.25337989 87.01925846 -2.264395 77.18766171 C-2.27346347 68.7570638 -2.2747552 60.32649091 -2.26951766 51.8958897 C-2.26639508 46.85608652 -2.26599642 41.81632237 -2.27259064 36.77652168 C-2.27835695 32.03810737 -2.27438032 27.29980025 -2.26280212 22.56139755 C-2.26015156 20.81948334 -2.26092736 19.07756016 -2.26532745 17.33564949 C-2.27076884 14.96323185 -2.26396604 12.59116065 -2.25396729 10.21876526 C-2.25842873 9.52460638 -2.26289017 8.8304475 -2.26748681 8.11525351 C-2.23786099 4.50690144 -2.06481773 3.09722659 0 0 Z M29 28 C29 48.79 29 69.58 29 91 C35.92030476 91.2910173 35.92030476 91.2910173 41 88 C44.4787423 82.66361562 44.43841649 77.93363803 44.3984375 71.78125 C44.40130768 70.80514771 44.40417786 69.82904541 44.40713501 68.82336426 C44.40917055 66.76586322 44.40367647 64.7083426 44.39111328 62.65087891 C44.37505267 59.51029997 44.39097964 56.3710079 44.41015625 53.23046875 C44.40817373 51.22655967 44.40432987 49.22265139 44.3984375 47.21875 C44.40451019 46.28421997 44.41058289 45.34968994 44.4168396 44.38684082 C44.3611141 39.1945775 43.96901449 35.45747339 41 31 C36.51066513 28.00711009 34.65371606 28 29 28 Z " fill="#FC3231" transform="translate(170,191)"/>
<path d="M0 0 C4.95 0 9.9 0 15 0 C15 55.77 15 111.54 15 169 C10.05 169 5.1 169 0 169 C0 113.23 0 57.46 0 0 Z M6 4 C6 57.13 6 110.26 6 165 C7.32 165 8.64 165 10 165 C10 111.87 10 58.74 10 4 C8.68 4 7.36 4 6 4 Z " fill="#020101" transform="translate(252,200)"/>
<path d="M0 0 C1.65 1.65 3.3 3.3 5 5 C4.34 6.65 3.68 8.3 3 10 C5.64 10 8.28 10 11 10 C11.33 9.01 11.66 8.02 12 7 C15.33717549 8.3809002 17.22301036 9.8201238 19 13 C18.8125 15.1875 18.8125 15.1875 18 17 C15.16730334 18.41634833 12.52533562 18.3463005 9.375 18.5625 C8.18648437 18.64628906 6.99796875 18.73007812 5.7734375 18.81640625 C4.85820312 18.87699219 3.94296875 18.93757813 3 19 C3 20.32 3 21.64 3 23 C3.56847656 23.12375 4.13695312 23.2475 4.72265625 23.375 C10.61345527 24.94850224 13.87109382 27.320573 17.8828125 31.8671875 C19 34 19 34 18.93359375 36.64453125 C18 39 18 39 16.15234375 40.14453125 C15.42144531 40.36496094 14.69054687 40.58539063 13.9375 40.8125 C13.20402344 41.04582031 12.47054687 41.27914062 11.71484375 41.51953125 C11.14894531 41.67808594 10.58304688 41.83664062 10 42 C12.85276137 44.93200474 15.65079784 47.64315404 19 50 C18.7421875 51.875 18.7421875 51.875 18 54 C16.3203125 55.125 16.3203125 55.125 14.125 56 C12.92037109 56.48726563 12.92037109 56.48726563 11.69140625 56.984375 C10.80324219 57.31953125 9.91507813 57.6546875 9 58 C8.01902344 58.37640625 7.03804687 58.7528125 6.02734375 59.140625 C-1.61443662 62 -1.61443662 62 -4 62 C-4 63.32 -4 64.64 -4 66 C-7.42106076 65.74658809 -8.30782184 64.69217816 -10.8125 62.1875 C-13 59 -13 59 -12.84765625 56.92578125 C-11.29390703 53.39583486 -7.38587427 52.38852888 -4 51 C-0.35442477 49.60300792 3.310145 48.27517048 7 47 C6.34 46.34 5.68 45.68 5 45 C2.0574037 45.30652045 -0.34542308 45.67271154 -3 47 C-4.13350534 49.01669827 -4.13350534 49.01669827 -5 51 C-8.24298429 49.91900524 -8.81612526 49.34373384 -10.75 46.6875 C-11.19859375 46.09324219 -11.6471875 45.49898438 -12.109375 44.88671875 C-13 43 -13 43 -12.76953125 40.84765625 C-12 39 -12 39 -9.9375 37.75 C-9.298125 37.5025 -8.65875 37.255 -8 37 C-8.639375 36.236875 -9.27875 35.47375 -9.9375 34.6875 C-13.15126314 30.49986924 -13.37742875 27.18964533 -13 22 C-9.64672361 19.76448241 -9.09256343 19.82716472 -5.3125 20.375 C-4.50425781 20.48585938 -3.69601563 20.59671875 -2.86328125 20.7109375 C-1.94095703 20.85402344 -1.94095703 20.85402344 -1 21 C-2.0209375 19.88625 -2.0209375 19.88625 -3.0625 18.75 C-5 16 -5 16 -4.75 13.6875 C-4.5025 13.130625 -4.255 12.57375 -4 12 C-3.34 12 -2.68 12 -2 12 C-2.515625 11.443125 -3.03125 10.88625 -3.5625 10.3125 C-5 8 -5 8 -4.9375 5.4375 C-3.82499464 2.54498606 -2.60646588 1.59751134 0 0 Z M-6 28 C-6.79953138 31.28696233 -7.09658936 32.71023192 -6 36 C-4.41439607 35.74279326 -2.83154076 35.46861201 -1.25 35.1875 C-0.36828125 35.03667969 0.5134375 34.88585937 1.421875 34.73046875 C4.1910911 33.94585752 5.8259401 32.85404641 8 31 C1.19431865 28.39973251 1.19431865 28.39973251 -6 28 Z " fill="#2B2A2A" transform="translate(135,317)"/>
<path d="M0 0 C4.72495088 1.5324165 4.72495088 1.5324165 6.25 4.125 C7.82552682 6.21778091 7.82552682 6.21778091 10.18359375 6.2578125 C12.46805241 6.2506847 14.72235984 6.17189737 17 6 C16.67 4.68 16.34 3.36 16 2 C16.99 1.67 17.98 1.34 19 1 C20.03613033 2.23734984 21.05347802 3.49044637 22.0625 4.75 C22.91521484 5.79414063 22.91521484 5.79414063 23.78515625 6.859375 C25 9 25 9 24.80859375 11.203125 C24 13 24 13 22 14 C19.62876754 14.23029956 17.25258057 14.41119942 14.875 14.5625 C13.59367187 14.64628906 12.31234375 14.73007812 10.9921875 14.81640625 C10.00476563 14.87699219 9.01734375 14.93757813 8 15 C7.34 16.98 6.68 18.96 6 21 C7.32 21.99 8.64 22.98 10 24 C10.515625 23.34 11.03125 22.68 11.5625 22 C14 20 14 20 17.5625 19.5625 C21 20 21 20 22.875 21.375 C25.14638868 24.65589477 25.16345412 26.96992924 25.1875 30.9375 C25.20167969 31.99839844 25.21585938 33.05929687 25.23046875 34.15234375 C25 37 25 37 23 40 C21.515 40.495 21.515 40.495 20 41 C20.825 41.886875 21.65 42.77375 22.5 43.6875 C24.20531854 45.7690636 24.97857577 46.92014604 25.6875 49.5625 C24.84131973 52.56259368 23.39641737 54.1289977 20.91015625 55.98046875 C17.38632921 57.86128441 13.96012151 58.36194659 10 58 C5.5688045 55.86646142 2.98282017 53.51642372 1 49 C0.5 46.5 0.5 46.5 1 44 C3.5 41.1875 3.5 41.1875 6 39 C5.18144531 38.19304687 4.36289063 37.38609375 3.51953125 36.5546875 C0.22158659 32.5971539 0.41414599 29.08742663 0.6875 24.125 C0.71005859 23.34125 0.73261719 22.5575 0.75585938 21.75 C0.81431982 19.8324974 0.90398717 17.9159894 1 16 C0.34 16.99 -0.32 17.98 -1 19 C-1.66 19 -2.32 19 -3 19 C-4.5078125 17.25 -4.5078125 17.25 -6.125 15 C-6.66382812 14.2575 -7.20265625 13.515 -7.7578125 12.75 C-8.16773437 12.1725 -8.57765625 11.595 -9 11 C-7.73046875 9.046875 -7.73046875 9.046875 -6 7 C-2.3125 6.25 -2.3125 6.25 1 6 C0.67 4.02 0.34 2.04 0 0 Z M14 35 C12.61767557 36.62626404 11.28062485 38.2925002 10 40 C10.78345715 41.17219543 11.57702836 42.33763668 12.375 43.5 C12.81585938 44.1496875 13.25671875 44.799375 13.7109375 45.46875 C14.13632813 45.9740625 14.56171875 46.479375 15 47 C15.66 47 16.32 47 17 47 C16.95875 45.88625 16.9175 44.7725 16.875 43.625 C17 40 17 40 19 38 C17.62514468 36.45833358 17.62514468 36.45833358 16 35 C15.34 35 14.68 35 14 35 Z M9 47 C8.34 48.32 7.68 49.64 7 51 C8.98 50.67 10.96 50.34 13 50 C12.67 49.01 12.34 48.02 12 47 C11.01 47 10.02 47 9 47 Z " fill="#2A2A2A" transform="translate(129,261)"/>
<path d="M0 0 C0.99 0.33 1.98 0.66 3 1 C3 1.66 3 2.32 3 3 C4.79244141 2.86078125 4.79244141 2.86078125 6.62109375 2.71875 C21.08720397 1.93466251 21.08720397 1.93466251 26.5 6.75 C29.62088725 10.09380777 31.91369941 13.10138699 32.125 17.75 C32.08375 18.4925 32.0425 19.235 32 20 C29.8125 20.75 29.8125 20.75 27 21 C24.1875 19.0625 24.1875 19.0625 22 17 C20.35 18.98 18.7 20.96 17 23 C18.0209375 24.11375 18.0209375 24.11375 19.0625 25.25 C21 28 21 28 20.75 30.3125 C20.5025 30.869375 20.255 31.42625 20 32 C18.02 32.495 18.02 32.495 16 33 C16.37253906 33.45890625 16.74507812 33.9178125 17.12890625 34.390625 C17.60199219 35.00421875 18.07507813 35.6178125 18.5625 36.25 C19.27599609 37.15492188 19.27599609 37.15492188 20.00390625 38.078125 C21 40 21 40 20.71484375 42.171875 C20 44 20 44 19 45 C16.65012738 45.23527773 14.29443961 45.41386417 11.9375 45.5625 C10.64714844 45.64628906 9.35679687 45.73007813 8.02734375 45.81640625 C7.02832031 45.87699219 6.02929688 45.93757813 5 46 C5.33 46.99 5.66 47.98 6 49 C2 49 2 49 -0.8125 46.25 C-3 43 -3 43 -3.0625 40.75 C-1.71424753 38.52934887 -0.39012264 37.92520876 2 37 C1.154375 36.278125 0.30875 35.55625 -0.5625 34.8125 C-3 32 -3 32 -2.9375 29.25 C-2 27 -2 27 0 26 C3.37416015 25.72357336 6.74801561 25.55294991 10.12890625 25.37890625 C11.07636719 25.25386719 12.02382812 25.12882812 13 25 C13.33 24.34 13.66 23.68 14 23 C12.453125 23.12375 12.453125 23.12375 10.875 23.25 C6.26709746 22.95271596 4.50158272 21.95689208 1 19 C-1.94677708 15.5998726 -3.03703843 14.03707603 -2.875 9.5 C-2.06508951 6.26035804 -1.14715127 3.13554681 0 0 Z M4 12.5 C3.67 12.995 3.34 13.49 3 14 C3.33 14.66 3.66 15.32 4 16 C8.67461851 16.32613618 11.16674383 15.70582788 15 13 C14.67 12.34 14.34 11.68 14 11 C8.63909407 10.46326107 8.63909407 10.46326107 4 12.5 Z M22 11 C23.485 11.99 23.485 11.99 25 13 C25 12.34 25 11.68 25 11 C24.01 11 23.02 11 22 11 Z M6 34 C6.99 34.99 7.98 35.98 9 37 C10.65 36.34 12.3 35.68 14 35 C14 34.67 14 34.34 14 34 C11.36 34 8.72 34 6 34 Z " fill="#2A2929" transform="translate(133,188)"/>
<path d="M0 0 C3.96930989 -0.02465881 7.93859034 -0.04284023 11.90795898 -0.05493164 C13.25920386 -0.05997057 14.61044326 -0.06680177 15.96166992 -0.07543945 C17.90020434 -0.08752419 19.838778 -0.09269828 21.77734375 -0.09765625 C23.52905884 -0.10551147 23.52905884 -0.10551147 25.31616211 -0.11352539 C28 0 28 0 29 1 C29.09502416 3.49492388 29.12557566 5.96206014 29.11352539 8.45727539 C29.11367142 9.23770706 29.11381744 10.01813873 29.1139679 10.82221985 C29.11326858 13.4140598 29.10547536 16.00582878 29.09765625 18.59765625 C29.09579213 20.3898464 29.0943682 22.18203706 29.09336853 23.97422791 C29.08954284 28.70070797 29.07971212 33.42715752 29.06866455 38.15362549 C29.05845153 42.9728555 29.05387115 47.79209042 29.04882812 52.61132812 C29.03808989 62.07423219 29.02101286 71.53711356 29 81 C28.67 81 28.34 81 28 81 C28 54.93 28 28.86 28 2 C18.76 2 9.52 2 0 2 C0 3.98 0 5.96 0 8 C5.28 8 10.56 8 16 8 C16 64.1 16 120.2 16 178 C15.67 178 15.34 178 15 178 C15 122.23 15 66.46 15 9 C10.05 9 5.1 9 0 9 C0.00444122 11.11280365 0.00888245 13.2256073 0.01345825 15.4024353 C0.05426795 35.26860356 0.08406379 55.13476631 0.10362434 75.00096703 C0.11394848 85.21550524 0.12803047 95.43001274 0.15087891 105.64453125 C0.17077805 114.54477223 0.18370816 123.44499098 0.18817699 132.34525359 C0.19079028 137.06034002 0.19695611 141.77536283 0.21146011 146.49042892 C0.22498918 150.92428998 0.22923217 155.35806095 0.22621536 159.79194069 C0.22676763 161.42301357 0.23077283 163.05408933 0.23841095 164.68514442 C0.24829924 166.90474109 0.24599156 169.12399348 0.24050903 171.34359741 C0.24235262 172.58801794 0.24419621 173.83243847 0.24609566 175.11456871 C0 178 0 178 -2 180 C-2.04670284 157.26919708 -2.08198043 134.53840207 -2.10362434 111.80756092 C-2.11394071 101.25344553 -2.12800794 90.69935994 -2.15087891 80.14526367 C-2.17080173 70.94724546 -2.18371382 61.74924882 -2.18817699 52.55120963 C-2.19078624 47.68009151 -2.19692665 42.80903513 -2.21146011 37.93793678 C-2.2250265 33.35386518 -2.22922454 28.76988079 -2.22621536 24.18579102 C-2.22676595 22.50276401 -2.23074901 20.81973412 -2.23841095 19.13672447 C-2.24835746 16.83935877 -2.24597001 14.54232263 -2.24050903 12.24494934 C-2.24235262 10.95904813 -2.24419621 9.67314692 -2.24609566 8.348279 C-2.00893521 5.12156886 -1.393289 2.89585824 0 0 Z " fill="#973D3C" transform="translate(252,191)"/>
<path d="M0 0 C2 2 2 2 2.24609566 4.7761097 C2.24425207 5.96890982 2.24240849 7.16170994 2.24050903 8.39065552 C2.24221788 9.05389985 2.24392673 9.71714418 2.24568737 10.40048683 C2.24899372 12.63314772 2.23796003 14.86551112 2.22705078 17.09814453 C2.22648691 18.69447828 2.22680275 20.29081255 2.22793579 21.887146 C2.22851126 26.22990939 2.21672564 30.57256303 2.20278788 34.91530085 C2.19031278 39.45035405 2.18911257 43.98540958 2.18673706 48.52047729 C2.1805128 57.11234871 2.16408922 65.70416942 2.14403808 74.29601848 C2.12170847 84.07579913 2.11069306 93.85558216 2.10064721 103.63538194 C2.07972378 123.75695039 2.04412814 143.87847022 2 164 C10.91 164 19.82 164 29 164 C29 142.55 29 121.1 29 99 C27.515 98.505 27.515 98.505 26 98 C26.495 96.515 26.495 96.515 27 95 C30.465 95.495 30.465 95.495 34 96 C34 96.99 34 97.98 34 99 C33.34 99 32.68 99 32 99 C31.67 120.78 31.34 142.56 31 165 C25.82661386 166.72446205 20.3523547 166.1846059 14.9375 166.1875 C13.72771484 166.19974609 12.51792969 166.21199219 11.27148438 166.22460938 C9.54188477 166.22750977 9.54188477 166.22750977 7.77734375 166.23046875 C6.71765381 166.23457764 5.65796387 166.23868652 4.56616211 166.24291992 C2 166 2 166 0 164 C-0.24609566 161.19265556 -0.24609566 161.19265556 -0.24050903 157.53341675 C-0.24221788 156.86200531 -0.24392673 156.19059387 -0.24568737 155.49883664 C-0.24899389 153.23853801 -0.23795974 150.9785332 -0.22705078 148.71826172 C-0.22648692 147.10222379 -0.22680274 145.48618534 -0.22793579 143.87014771 C-0.22851127 139.47366757 -0.21672542 135.07729584 -0.20278788 130.68084097 C-0.19031302 126.08973326 -0.18911259 121.49862326 -0.18673706 116.90750122 C-0.18051273 108.2093822 -0.16408905 99.51131326 -0.14403808 90.81321633 C-0.12170869 80.91251891 -0.11069311 71.01181914 -0.10064721 61.11110282 C-0.07972362 40.74070723 -0.04452917 20.37035676 0 0 Z " fill="#DB4644" transform="translate(168,211)"/>
<path d="M0 0 C4.95 0 9.9 0 15 0 C15 55.77 15 111.54 15 169 C10.05 169 5.1 169 0 169 C0 116.53 0 64.06 0 10 C0.33 10 0.66 10 1 10 C1 61.81 1 113.62 1 167 C4.96 167 8.92 167 13 167 C12.99777939 165.02358017 12.99555878 163.04716034 12.99327087 161.010849 C12.9728358 142.39710445 12.95795401 123.78336137 12.94818783 105.16960812 C12.94303325 95.5998026 12.93600649 86.03000531 12.92456055 76.46020508 C12.91458813 68.11842311 12.90814047 59.7766471 12.90591151 51.43485934 C12.90460875 47.01865275 12.90155039 42.60246324 12.89426994 38.18626213 C12.8874694 34.02736284 12.88539126 29.8684876 12.88689232 25.70958328 C12.88661781 24.18543047 12.88463666 22.66127683 12.88079453 21.13712883 C12.87579421 19.05073548 12.87702496 16.96443208 12.87974548 14.8780365 C12.87882369 13.71196837 12.8779019 12.54590025 12.87695217 11.34449673 C13.00599344 7.83709554 13.44443125 4.46338954 14 1 C9.71 1 5.42 1 1 1 C1 3.31 1 5.62 1 8 C0.67 8 0.34 8 0 8 C0 5.36 0 2.72 0 0 Z " fill="#150000" transform="translate(252,200)"/>
<path d="M0 0 C0.33 0 0.66 0 1 0 C1 56.1 1 112.2 1 170 C-2.00313748 171.50156874 -4.79067522 171.09281204 -8.125 171.0625 C-9.40632813 171.05347656 -10.68765625 171.04445313 -12.0078125 171.03515625 C-13.48894531 171.01775391 -13.48894531 171.01775391 -15 171 C-15 172.32 -15 173.64 -15 175 C-6.09 175 2.82 175 12 175 C12 148.27 12 121.54 12 94 C12.33 94 12.66 94 13 94 C13 121.06 13 148.12 13 176 C10.2464504 177.3767748 8.01159591 177.12969689 4.93359375 177.1328125 C3.72638672 177.13410156 2.51917969 177.13539063 1.27539062 177.13671875 C-0.62436523 177.13091797 -0.62436523 177.13091797 -2.5625 177.125 C-4.46805664 177.13080078 -4.46805664 177.13080078 -6.41210938 177.13671875 C-7.61802734 177.13542969 -8.82394531 177.13414062 -10.06640625 177.1328125 C-11.17959229 177.13168457 -12.29277832 177.13055664 -13.43969727 177.12939453 C-16 177 -16 177 -17 176 C-17 173.69 -17 171.38 -17 169 C-11.39 169 -5.78 169 0 169 C0 113.23 0 57.46 0 0 Z " fill="#DE4446" transform="translate(268,200)"/>
<path d="M0 0 C5.57142857 5.14285714 5.57142857 5.14285714 6 9 C1.07930252 13.08450052 -4.26995022 12.33827379 -10.3125 12.1875 C-11.85260742 12.16719727 -11.85260742 12.16719727 -13.42382812 12.14648438 C-15.94975909 12.11123883 -18.4746066 12.061967 -21 12 C-21 13.32 -21 14.64 -21 16 C-24.7952131 14.50902342 -26.61042731 12.24299151 -29 9 C-27.25 5.125 -27.25 5.125 -25 4 C-23.18658158 3.91528636 -21.37005839 3.89278917 -19.5546875 3.90234375 C-18.47832031 3.90556641 -17.40195313 3.90878906 -16.29296875 3.91210938 C-15.16503906 3.92048828 -14.03710938 3.92886719 -12.875 3.9375 C-11.73933594 3.94201172 -10.60367188 3.94652344 -9.43359375 3.95117188 C-6.62234362 3.96298385 -3.8111977 3.97945493 -1 4 C-0.67 2.68 -0.34 1.36 0 0 Z " fill="#2C2C2C" transform="translate(148,248)"/>
<path d="M0 0 C3.33717549 1.3809002 5.22301036 2.8201238 7 6 C6.8125 8.1875 6.8125 8.1875 6 10 C3.16730334 11.41634833 0.52533562 11.3463005 -2.625 11.5625 C-3.81351563 11.64628906 -5.00203125 11.73007813 -6.2265625 11.81640625 C-7.14179688 11.87699219 -8.05703125 11.93757812 -9 12 C-9 13.32 -9 14.64 -9 16 C-12.79235994 14.51014431 -14.80565887 12.41341953 -17 9 C-16.875 6.75 -16.875 6.75 -16 5 C-13.0384304 3.5192152 -10.16493705 3.64685963 -6.875 3.4375 C-5.59367188 3.35371094 -4.31234375 3.26992187 -2.9921875 3.18359375 C-2.00476563 3.12300781 -1.01734375 3.06242188 0 3 C0 2.01 0 1.02 0 0 Z " fill="#2B2B2B" transform="translate(147,235)"/>
<path d="M0 0 C5.28089024 -0.30466674 6.577168 -0.317124 11 3 C7.7 2.67 4.4 2.34 1 2 C1 22.79 1 43.58 1 65 C4.63 64.34 8.26 63.68 12 63 C12 63.66 12 64.32 12 65 C7.45240084 66.23324723 3.71865769 67.05466946 -1 67 C-1.02314265 58.55959739 -1.04092492 50.11920798 -1.05181217 41.67878151 C-1.05703678 37.7598013 -1.0641268 33.84084274 -1.07543945 29.921875 C-1.08628329 26.14177614 -1.09228002 22.36169814 -1.09487724 18.58158493 C-1.09672878 17.13745164 -1.10034424 15.69331953 -1.10573006 14.2491951 C-1.1129602 12.23075723 -1.11340823 10.21229847 -1.11352539 8.19384766 C-1.115746 7.04357086 -1.11796661 5.89329407 -1.12025452 4.7081604 C-1 2 -1 2 0 0 Z " fill="#D94142" transform="translate(198,217)"/>
<path d="M0 0 C1.84766968 3.69533936 2.99303205 7.04230464 4.125 11 C4.47820312 12.216875 4.83140625 13.43375 5.1953125 14.6875 C6 18 6 18 6 22 C1.42337784 24.28831108 -4.97497292 23.18502705 -10 23.1875 C-11.3096875 23.19974609 -12.619375 23.21199219 -13.96875 23.22460938 C-15.84046875 23.22750977 -15.84046875 23.22750977 -17.75 23.23046875 C-18.89984375 23.23457764 -20.0496875 23.23868652 -21.234375 23.24291992 C-24 23 -24 23 -26 21 C-26.6328125 18.3984375 -26.6328125 18.3984375 -27.125 15.375 C-27.29257812 14.37210937 -27.46015625 13.36921875 -27.6328125 12.3359375 C-27.75398438 11.56507813 -27.87515625 10.79421875 -28 10 C-27.34 9.67 -26.68 9.34 -26 9 C-25.34 12.63 -24.68 16.26 -24 20 C-10.14 20.495 -10.14 20.495 4 21 C3.67 19.68 3.34 18.36 3 17 C2.34 16.67 1.68 16.34 1 16 C1.33 14.02 1.66 12.04 2 10 C1.34 10 0.68 10 0 10 C0 6.7 0 3.4 0 0 Z " fill="#D85050" transform="translate(331,354)"/>
<path d="M0 0 C5.17601507 0.48525141 8.8230391 3.13895158 13 6 C13.9075 6.61875 14.815 7.2375 15.75 7.875 C18.69926026 10.66041247 20.18500501 13.37001001 22 17 C22 17.66 22 18.32 22 19 C21.34 19 20.68 19 20 19 C19.608125 18.030625 19.21625 17.06125 18.8125 16.0625 C17.338545 12.77137156 17.338545 12.77137156 14.375 12.25 C13.59125 12.1675 12.8075 12.085 12 12 C11.67 11.34 11.34 10.68 11 10 C10.34 10.66 9.68 11.32 9 12 C9 11.34 9 10.68 9 10 C8.34 10 7.68 10 7 10 C7.66 8.68 8.32 7.36 9 6 C4.545 4.02 4.545 4.02 0 2 C0 1.34 0 0.68 0 0 Z " fill="#E73D3B" transform="translate(218,194)"/>
<path d="M0 0 C9.57 0 19.14 0 29 0 C30.31223496 3.93670488 29.24296256 6.12488144 28 10 C27.67 10 27.34 10 27 10 C27.33 7.36 27.66 4.72 28 2 C18.76 2 9.52 2 0 2 C0 1.34 0 0.68 0 0 Z " fill="#D9504B" transform="translate(305,191)"/>
<path d="M0 0 C0.33 0 0.66 0 1 0 C1.33 3.96 1.66 7.92 2 12 C1.67 12 1.34 12 1 12 C0.87625 13.134375 0.7525 14.26875 0.625 15.4375 C0.41875 16.613125 0.2125 17.78875 0 19 C-0.66 19.33 -1.32 19.66 -2 20 C-2.65213292 22.02463255 -2.65213292 22.02463255 -3 24 C-3.66 24 -4.32 24 -5 24 C-3.77409993 15.86579246 -2.1142355 7.94952546 0 0 Z " fill="#E73F3D" transform="translate(292,241)"/>
<path d="M0 0 C2.66735273 2.48952921 4.55746343 4.63408134 6 8 C4.02 8.99 4.02 8.99 2 10 C-0.0625 7.75 -0.0625 7.75 -2 5 C-1.81190541 2.74286486 -1.60454441 1.60454441 0 0 Z " fill="#2B2B2B" transform="translate(124,239)"/>
<path d="M0 0 C1.10313617 3.3094085 0.89941114 4.19482294 0.00390625 7.44921875 C-0.33930664 8.72055664 -0.33930664 8.72055664 -0.68945312 10.01757812 C-0.93630859 10.89865234 -1.18316406 11.77972656 -1.4375 12.6875 C-1.68048828 13.58017578 -1.92347656 14.47285156 -2.17382812 15.39257812 C-2.77509306 17.59721622 -3.38406657 19.79942345 -4 22 C-4.33 22 -4.66 22 -5 22 C-5.04254356 20.00045254 -5.04080783 17.99958364 -5 16 C-4.67 15.67 -4.34 15.34 -4 15 C-3.95679753 12.66706666 -3.95977609 10.3329866 -4 8 C-4 7.01 -4 6.02 -4 5 C-3.01 5 -2.02 5 -1 5 C-0.67 3.35 -0.34 1.7 0 0 Z " fill="#DD4744" transform="translate(328,214)"/>
<path d="M0 0 C3.24848794 6.49697589 5.59533199 13.65757217 5 21 C4.71125 20.360625 4.4225 19.72125 4.125 19.0625 C3.17176549 16.84793921 3.17176549 16.84793921 1 16 C1.33 14.02 1.66 12.04 2 10 C1.34 10 0.68 10 0 10 C0 6.7 0 3.4 0 0 Z " fill="#E44040" transform="translate(331,354)"/>
<path d="M0 0 C2.31 0 4.62 0 7 0 C1.82050992 5.17949008 -7.13237854 4.57147846 -14 5 C-13.67 4.01 -13.34 3.02 -13 2 C-6.565 1.505 -6.565 1.505 0 1 C0 0.67 0 0.34 0 0 Z " fill="#DE3F3E" transform="translate(217,305)"/>
<path d="M0 0 C2 1 2 1 3.0625 3.3125 C4.37976661 8.49374868 4.67262168 13.67579471 5 19 C2.93421237 15.90131855 2.25308642 13.65023694 1.375 10.0625 C1.11460937 9.02222656 0.85421875 7.98195313 0.5859375 6.91015625 C0 4 0 4 0 0 Z " fill="#D84745" transform="translate(297,340)"/>
<path d="M0 0 C0.99 0.33 1.98 0.66 3 1 C2.1875 3.9375 2.1875 3.9375 1 7 C0.01 7.33 -0.98 7.66 -2 8 C-2.33 6.02 -2.66 4.04 -3 2 C-2.01 1.34 -1.02 0.68 0 0 Z " fill="#2E2D2B" transform="translate(133,214)"/>
<path d="M0 0 C0.33 0 0.66 0 1 0 C1.2358396 5.77807024 0.86783046 10.51324804 -1 16 C-1.66 16 -2.32 16 -3 16 C-2.40984815 10.49191603 -1.43336231 5.35121931 0 0 Z " fill="#D14848" transform="translate(300,208)"/>
<path d="M0 0 C0.33 0 0.66 0 1 0 C1 2.64 1 5.28 1 8 C0.34 8 -0.32 8 -1 8 C-0.67 9.98 -0.34 11.96 0 14 C-0.99 14.33 -1.98 14.66 -3 15 C-2.69052329 13.06201479 -2.37731166 11.12462574 -2.0625 9.1875 C-1.88847656 8.10855469 -1.71445312 7.02960938 -1.53515625 5.91796875 C-1 3 -1 3 0 0 Z " fill="#D94543" transform="translate(290,250)"/>
<path d="M0 0 C0.66 0 1.32 0 2 0 C3.26237731 2.52475462 3.09856404 4.31200466 3.0625 7.125 C3.05347656 8.03507812 3.04445313 8.94515625 3.03515625 9.8828125 C3.02355469 10.58148438 3.01195312 11.28015625 3 12 C0.7655402 7.96707255 0.45503257 4.55032566 0 0 Z " fill="#DD3E3F" transform="translate(294,328)"/>
<path d="M0 0 C2.475 0.99 2.475 0.99 5 2 C2.47211993 4.79872437 0.79588866 6.45773019 -3 7 C-3 6.34 -3 5.68 -3 5 C-2.01 5 -1.02 5 0 5 C-0.2784375 4.0409375 -0.2784375 4.0409375 -0.5625 3.0625 C-0.706875 2.381875 -0.85125 1.70125 -1 1 C-0.67 0.67 -0.34 0.34 0 0 Z " fill="#E53E42" transform="translate(227,298)"/>
<path d="M0 0 C1.09658936 3.28976808 0.79953138 4.71303767 0 8 C-0.99 8.33 -1.98 8.66 -3 9 C-3.66 8.01 -4.32 7.02 -5 6 C-3.68 5.67 -2.36 5.34 -1 5 C-0.67 3.35 -0.34 1.7 0 0 Z " fill="#E53B3A" transform="translate(328,214)"/>
<path d="M0 0 C3 1 3 1 3 1 Z M0 1 C0 2.98 0 4.96 0 7 C-0.99 7.495 -0.99 7.495 -2 8 C-2.66 6.02 -3.32 4.04 -4 2 C-1 1 -1 1 0 1 Z " fill="#242424" transform="translate(154,200)"/>
<path d="M0 0 C2.64 0 5.28 0 8 0 C6.68 0.33 5.36 0.66 4 1 C4.33 1.99 4.66 2.98 5 4 C4.01 4 3.02 4 2 4 C2 3.34 2 2.68 2 2 C1.01 2.33 0.02 2.66 -1 3 C-0.67 2.01 -0.34 1.02 0 0 Z " fill="#F13A37" transform="translate(210,193)"/>
</svg>
